<?xml version="1.0" standalone="no"?>
<!DOCTYPE svg PUBLIC "-//W3C//DTD SVG 20010904//EN"
 "http://www.w3.org/TR/2001/REC-SVG-20010904/DTD/svg10.dtd">
<svg version="1.0" xmlns="http://www.w3.org/2000/svg"
 width="700.000000pt" height="700.000000pt" viewBox="0 0 700.000000 700.000000"
 preserveAspectRatio="xMidYMid meet">
<metadata>
Created by potrace 1.14, written by Peter Selinger 2001-2017
</metadata>
<g transform="translate(0.000000,700.000000) scale(0.100000,-0.100000)"
fill="#000000" stroke="none">
<path d="M274 6533 c3 -16 127 -1076 276 -2358 149 -1282 274 -2340 278 -2353
6 -18 235 -139 1157 -608 633 -322 1233 -628 1335 -679 l184 -93 1336 680
1335 680 274 2361 c150 1299 275 2370 278 2380 4 16 -154 17 -3227 17 l-3232
0 6 -27z m5693 -785 c-4 -24 -43 -419 -87 -878 -45 -459 -83 -845 -85 -857
l-5 -21 -52 25 c-68 33 -1809 862 -1826 870 -8 3 -57 -86 -149 -273 -75 -154
-264 -532 -420 -841 l-284 -561 -117 51 c-65 29 -328 144 -585 257 -257 113
-467 207 -467 210 0 3 294 135 653 294 358 159 663 294 677 300 l25 11 3 294
c1 162 -1 298 -5 302 -12 10 -114 -36 -1117 -500 -500 -231 -911 -420 -912
-418 -4 3 -174 1717 -174 1750 l0 27 2466 0 2466 0 -5 -42z m-1365 -1761 c312
-139 568 -254 568 -257 -1 -3 -292 -136 -648 -295 l-647 -290 -3 -298 c-1
-163 0 -297 2 -297 3 0 422 200 933 444 510 244 929 444 930 443 5 -6 -119
-1203 -125 -1209 -21 -21 -2108 -1025 -2117 -1018 -5 4 -197 98 -425 208
-1126 542 -1666 804 -1673 812 -9 8 -129 1181 -122 1188 2 2 403 -182 892
-409 488 -226 907 -420 930 -430 l42 -18 47 87 c26 48 200 391 387 762 423
841 424 843 445 835 10 -3 272 -119 584 -258z"/>
</g>
</svg>
